<svg xmlns="http://www.w3.org/2000/svg" xmlns:xlink="http://www.w3.org/1999/xlink" viewBox="0 0 156.1 155.9"><defs><style>.cls-1{fill:url(#linear-gradient);}</style><linearGradient id="linear-gradient" y1="77.95" x2="156.1" y2="77.95" gradientUnits="userSpaceOnUse"><stop offset="0" stop-color="#f3e979"></stop><stop offset="1" stop-color="#c9b135"></stop></linearGradient></defs><g id="Layer_2" data-name="Layer 2"><g id="Layer_1-2" data-name="Layer 1"><path class="cls-1" d="M39.91,155.73c0-24-17.87-43.46-39.91-43.46,22,0,39.91-19.45,39.91-43.45,0,24,17.87,43.45,39.91,43.45C57.78,112.27,39.91,131.73,39.91,155.73ZM80.85,0h-1.8L64.67,35.27l.79,2.36,28,68.4h-.12c3.23,8.21,10.34,22.23,9.89,30.89.25,6.76-3.76,17.76-10.45,17.18v1.8H156.1v-1.8C132.65,153.31,92.23,18.29,80.85,0Z"></path></g></g></svg>