<svg width="46" height="50" viewBox="0 0 46 50" fill="none" xmlns="http://www.w3.org/2000/svg">
<path d="M12.8732 30.3045H2.53682C1.77287 30.3045 1.14798 30.9124 1.12731 31.6764V48.5905C1.12731 49.3685 1.75877 50 2.53682 50H12.8732C13.6513 50 14.2827 49.3685 14.2827 48.5905V31.6764C14.2621 30.9124 13.6372 30.3045 12.8732 30.3045ZM11.4637 47.2186H3.94633V33.1235H11.4637V47.2186ZM28.594 22.7871H18.2576C17.4936 22.7871 16.8687 23.395 16.848 24.159V48.5905C16.848 49.3685 17.4795 50 18.2576 50H28.594C29.372 50 30.0035 49.3685 30.0035 48.5905V24.159C29.9828 23.395 29.3579 22.7871 28.594 22.7871ZM27.1844 47.2186H19.6671V25.6061H27.1844V47.2186ZM44.3147 15.2697H33.9783C33.2002 15.2697 32.5688 15.9011 32.5688 16.6792V48.5905C32.5688 49.3685 33.2002 50 33.9783 50H44.3147C45.0927 50 45.7242 49.3685 45.7242 48.5905V16.6416C45.7035 15.8777 45.0786 15.2697 44.3147 15.2697ZM42.9052 47.2186H35.3878V18.0887H42.9052V47.2186ZM5.73171 20.4003C6.25323 20.9782 6.20812 21.869 5.63022 22.3915C5.62928 22.3915 5.62928 22.3924 5.62834 22.3924L2.44285 25.2678C1.91288 25.8382 1.02113 25.872 0.450746 25.342C-0.119636 24.8121 -0.153464 23.9203 0.376511 23.3499C0.433831 23.2879 0.49585 23.2325 0.563506 23.1817L3.69262 20.2969C4.25736 19.7613 5.14911 19.7839 5.68566 20.3486C5.70164 20.3655 5.71667 20.3824 5.73171 20.4003ZM40.1613 0H33.1326C32.3545 0 31.7231 0.63146 31.724 1.41045C31.724 2.1885 32.3545 2.81902 33.1326 2.81902H36.1865L19.7798 16.6416L15.0251 11.8869C14.4942 11.3606 13.6447 11.34 13.0893 11.8399L7.24458 17.1302C6.71461 17.7006 6.74843 18.5924 7.31882 19.1223C7.81872 19.5865 8.57892 19.626 9.12393 19.2163L13.9726 14.828L18.671 19.5264C19.1869 20.0272 19.9959 20.0592 20.5504 19.6016L38.6203 4.34129V8.01541C38.6203 8.79346 39.2517 9.42492 40.0298 9.42492C40.8078 9.42492 41.4393 8.79346 41.4393 8.01541V1.29675C41.4393 0.663409 40.992 0 40.1613 0Z" fill="url(#paint0_linear_13_1422)"/>
<defs>
<linearGradient id="paint0_linear_13_1422" x1="3.63715" y1="-3.80435" x2="50.6992" y2="5.8693" gradientUnits="userSpaceOnUse">
<stop stop-color="#FECD20"/>
<stop offset="1" stop-color="#DB3443"/>
</linearGradient>
</defs>
</svg>
