<svg width="44" height="50" viewBox="0 0 44 50" fill="none" xmlns="http://www.w3.org/2000/svg">
<path d="M21.8619 12.5521C14.9981 12.5521 9.41396 18.1362 9.41396 25C9.41396 31.8638 14.9981 37.448 21.8619 37.448C28.7257 37.448 34.3099 31.8638 34.3099 25C34.3099 18.1362 28.7257 12.5521 21.8619 12.5521ZM21.8619 34.5183C16.6136 34.5183 12.3437 30.2483 12.3437 25C12.3437 19.7517 16.6136 15.4817 21.8619 15.4817C27.1102 15.4817 31.3802 19.7517 31.3802 25C31.3802 30.2483 27.1102 34.5183 21.8619 34.5183Z" fill="url(#paint0_linear_14_1455)"/>
<path d="M22.2553 3.14298L22.8977 2.5006C23.4697 1.92863 23.4697 1.00109 22.8977 0.429016C22.3257 -0.143054 21.3981 -0.142956 20.8261 0.429016L17.6881 3.5671C17.4134 3.84181 17.259 4.21437 17.259 4.60284C17.259 4.99132 17.4133 5.36388 17.6881 5.63859L20.8262 8.77667C21.1122 9.06271 21.4871 9.20567 21.8619 9.20567C22.2367 9.20567 22.6117 9.06271 22.8977 8.77657C23.4697 8.2045 23.4697 7.27706 22.8977 6.70499L22.2653 6.07276C32.519 6.28839 40.7941 14.6956 40.7941 25C40.7941 25.809 41.45 26.4648 42.259 26.4648C43.068 26.4648 43.7238 25.809 43.7238 25C43.7238 13.0768 34.1291 3.35382 22.2553 3.14298Z" fill="url(#paint1_linear_14_1455)"/>
<path d="M22.6464 23.5352H21.1088C20.6015 23.5352 20.1887 23.121 20.1887 22.6105C20.1887 22.1403 20.5697 21.7578 21.0381 21.7578H23.4309C24.2398 21.7578 24.8957 21.102 24.8957 20.293C24.8957 19.484 24.2398 18.8281 23.4309 18.8281H23.3268V18.724C23.3268 17.915 22.6709 17.2592 21.8619 17.2592C21.0529 17.2592 20.3971 17.915 20.3971 18.724V18.8837C18.6177 19.1895 17.259 20.7439 17.259 22.612C17.259 24.7365 18.986 26.4649 21.1088 26.4649H22.6464C23.1365 26.4649 23.5352 26.8637 23.5352 27.3536C23.5352 27.8436 23.1365 28.2423 22.6464 28.2423H20.2929C19.4839 28.2423 18.828 28.8981 18.828 29.7071C18.828 30.5161 19.4839 31.172 20.2929 31.172H20.3971V31.2761C20.3971 32.0851 21.0529 32.7409 21.8619 32.7409C22.6709 32.7409 23.3268 32.0851 23.3268 31.2761V31.1101C25.1086 30.7881 26.4648 29.2268 26.4648 27.3536C26.4648 25.2481 24.7519 23.5352 22.6464 23.5352Z" fill="url(#paint2_linear_14_1455)"/>
<path d="M22.8977 41.2232C22.3257 40.6513 21.3981 40.6512 20.8261 41.2232C20.254 41.7953 20.254 42.7228 20.8261 43.2948L21.4584 43.9271C11.2047 43.7115 2.92969 35.3044 2.92969 25C2.92969 24.191 2.27383 23.5352 1.46484 23.5352C0.655859 23.5352 0 24.191 0 25C0 36.9232 9.59472 46.6462 21.4686 46.857L20.8262 47.4994C20.2541 48.0714 20.2541 48.9989 20.8262 49.571C21.1121 49.8569 21.487 50 21.8619 50C22.2368 50 22.6117 49.8569 22.8977 49.571L26.0357 46.4329C26.3104 46.1582 26.4648 45.7856 26.4648 45.3972C26.4648 45.0087 26.3105 44.6361 26.0357 44.3614L22.8977 41.2232Z" fill="url(#paint3_linear_14_1455)"/>
<defs>
<linearGradient id="paint0_linear_14_1455" x1="3.47803" y1="-3.80435" x2="48.6378" y2="5.07219" gradientUnits="userSpaceOnUse">
<stop stop-color="#FECD20"/>
<stop offset="1" stop-color="#DB3443"/>
</linearGradient>
<linearGradient id="paint1_linear_14_1455" x1="3.47803" y1="-3.80435" x2="48.6378" y2="5.07219" gradientUnits="userSpaceOnUse">
<stop stop-color="#FECD20"/>
<stop offset="1" stop-color="#DB3443"/>
</linearGradient>
<linearGradient id="paint2_linear_14_1455" x1="3.47803" y1="-3.80435" x2="48.6378" y2="5.07219" gradientUnits="userSpaceOnUse">
<stop stop-color="#FECD20"/>
<stop offset="1" stop-color="#DB3443"/>
</linearGradient>
<linearGradient id="paint3_linear_14_1455" x1="3.47803" y1="-3.80435" x2="48.6378" y2="5.07219" gradientUnits="userSpaceOnUse">
<stop stop-color="#FECD20"/>
<stop offset="1" stop-color="#DB3443"/>
</linearGradient>
</defs>
</svg>
