<svg width="50" height="50" viewBox="0 0 50 50" fill="none" xmlns="http://www.w3.org/2000/svg">
<path d="M44.1406 38.2812H43.5295C43.8659 36.858 44.043 35.3854 44.043 33.8867C44.043 23.3864 35.5003 14.8438 25 14.8438C14.4997 14.8438 5.95703 23.3864 5.95703 33.8867C5.95703 35.3854 6.13408 36.858 6.47051 38.2812H5.85938C2.62852 38.2812 0 40.9098 0 44.1406C0 47.3715 2.62852 50 5.85938 50H44.1406C47.3715 50 50 47.3715 50 44.1406C50 40.9098 47.3715 38.2812 44.1406 38.2812ZM25 17.7734C33.8849 17.7734 41.1133 25.0019 41.1133 33.8867C41.1133 39.1517 38.5612 44.0472 34.2655 47.0703H15.7345C11.4388 44.0472 8.88672 39.1517 8.88672 33.8867C8.88672 25.0019 16.1151 17.7734 25 17.7734ZM2.92969 44.1406C2.92969 42.5252 4.24395 41.2109 5.85938 41.2109H7.41875C8.31982 43.3755 9.61719 45.3637 11.2562 47.0703H5.85938C4.24395 47.0703 2.92969 45.7561 2.92969 44.1406ZM44.1406 47.0703H38.7438C40.3828 45.3637 41.6802 43.3755 42.5813 41.2109H44.1406C45.7561 41.2109 47.0703 42.5252 47.0703 44.1406C47.0703 45.7561 45.7561 47.0703 44.1406 47.0703Z" fill="url(#paint0_linear_14_1463)"/>
<path d="M25 38.2812C24.1923 38.2812 23.5352 37.6241 23.5352 36.8164C23.5352 36.0074 22.8793 35.3516 22.0703 35.3516C21.2613 35.3516 20.6055 36.0074 20.6055 36.8164C20.6055 38.7261 21.8302 40.3543 23.5352 40.959V42.6758C23.5352 43.4848 24.191 44.1406 25 44.1406C25.809 44.1406 26.4648 43.4848 26.4648 42.6758V40.959C28.1698 40.3543 29.3945 38.7261 29.3945 36.8164C29.3945 34.3933 27.4231 32.4219 25 32.4219C24.1923 32.4219 23.5352 31.7647 23.5352 30.957C23.5352 30.1493 24.1923 29.4922 25 29.4922C25.8077 29.4922 26.4648 30.1493 26.4648 30.957C26.4648 31.766 27.1207 32.4219 27.9297 32.4219C28.7387 32.4219 29.3945 31.766 29.3945 30.957C29.3945 29.0474 28.1698 27.4191 26.4648 26.8145V25.0977C26.4648 24.2887 25.809 23.6328 25 23.6328C24.191 23.6328 23.5352 24.2887 23.5352 25.0977V26.8145C21.8302 27.4191 20.6055 29.0474 20.6055 30.957C20.6055 33.3802 22.5769 35.3516 25 35.3516C25.8077 35.3516 26.4648 36.0087 26.4648 36.8164C26.4648 37.6241 25.8077 38.2812 25 38.2812Z" fill="url(#paint1_linear_14_1463)"/>
<path d="M25 11.7188C25.809 11.7188 26.4648 11.0629 26.4648 10.2539V4.39453C26.4648 3.58555 25.809 2.92969 25 2.92969C24.191 2.92969 23.5352 3.58555 23.5352 4.39453V10.2539C23.5352 11.0629 24.191 11.7188 25 11.7188Z" fill="url(#paint2_linear_14_1463)"/>
<path d="M30.8594 8.78906C31.6684 8.78906 32.3242 8.1332 32.3242 7.32422V1.46484C32.3242 0.655859 31.6684 0 30.8594 0C30.0504 0 29.3945 0.655859 29.3945 1.46484V7.32422C29.3945 8.1332 30.0504 8.78906 30.8594 8.78906Z" fill="url(#paint3_linear_14_1463)"/>
<path d="M19.1406 8.78906C19.9496 8.78906 20.6055 8.1332 20.6055 7.32422V1.46484C20.6055 0.655859 19.9496 0 19.1406 0C18.3316 0 17.6758 0.655859 17.6758 1.46484V7.32422C17.6758 8.1332 18.3316 8.78906 19.1406 8.78906Z" fill="url(#paint4_linear_14_1463)"/>
<defs>
<linearGradient id="paint0_linear_14_1463" x1="3.97727" y1="-3.80435" x2="55.035" y2="7.67203" gradientUnits="userSpaceOnUse">
<stop stop-color="#FECD20"/>
<stop offset="1" stop-color="#DB3443"/>
</linearGradient>
<linearGradient id="paint1_linear_14_1463" x1="3.97727" y1="-3.80435" x2="55.035" y2="7.67203" gradientUnits="userSpaceOnUse">
<stop stop-color="#FECD20"/>
<stop offset="1" stop-color="#DB3443"/>
</linearGradient>
<linearGradient id="paint2_linear_14_1463" x1="3.97727" y1="-3.80435" x2="55.035" y2="7.67203" gradientUnits="userSpaceOnUse">
<stop stop-color="#FECD20"/>
<stop offset="1" stop-color="#DB3443"/>
</linearGradient>
<linearGradient id="paint3_linear_14_1463" x1="3.97727" y1="-3.80435" x2="55.035" y2="7.67203" gradientUnits="userSpaceOnUse">
<stop stop-color="#FECD20"/>
<stop offset="1" stop-color="#DB3443"/>
</linearGradient>
<linearGradient id="paint4_linear_14_1463" x1="3.97727" y1="-3.80435" x2="55.035" y2="7.67203" gradientUnits="userSpaceOnUse">
<stop stop-color="#FECD20"/>
<stop offset="1" stop-color="#DB3443"/>
</linearGradient>
</defs>
</svg>
