<svg width="50" height="50" viewBox="0 0 50 50" fill="none" xmlns="http://www.w3.org/2000/svg">
<path d="M47.0588 0H2.94118C1.31941 0 0 1.31941 0 2.94118V47.0588C0 48.6806 1.31941 50 2.94118 50H47.0588C48.6806 50 50 48.6806 50 47.0588C50 32.3743 50 17.6721 50 2.94118C50 1.31941 48.6806 0 47.0588 0ZM47.0588 47.0588H2.94118V2.94118H47.0588L47.0589 6.27451H42.1569C40.5351 6.27451 39.2157 7.59392 39.2157 9.21569V12.549C39.2157 14.1708 40.5351 15.4902 42.1569 15.4902H47.0593L47.0601 34.5098H42.1569C40.5351 34.5098 39.2157 35.8292 39.2157 37.451V40.7843C39.2157 42.4061 40.5351 43.7255 42.1569 43.7255H47.0606C47.0607 47.1327 47.0686 47.0588 47.0588 47.0588ZM47.0588 9.21569V12.549H42.1569V9.21569H47.0588ZM47.0588 37.451V40.7843H42.1569V37.451H47.0588Z" fill="url(#paint0_linear_14_1498)"/>
<path d="M22.6471 20.3922C20.1063 20.3922 18.0392 22.4592 18.0392 25C18.0392 27.5408 20.1063 29.6078 22.6471 29.6078C25.1878 29.6078 27.2549 27.5408 27.2549 25C27.2549 22.4592 25.1878 20.3922 22.6471 20.3922ZM22.6471 26.6667C21.728 26.6667 20.9804 25.919 20.9804 25C20.9804 24.081 21.728 23.3333 22.6471 23.3333C23.5661 23.3333 24.3137 24.081 24.3137 25C24.3137 25.919 23.5661 26.6667 22.6471 26.6667Z" fill="url(#paint1_linear_14_1498)"/>
<path d="M37.549 23.5294H33.4297C32.7748 18.703 28.944 14.8723 24.1176 14.2174V10.098C24.1176 9.28588 23.4592 8.62745 22.6471 8.62745C21.8349 8.62745 21.1765 9.28588 21.1765 10.098V14.2174C16.3501 14.8723 12.5193 18.7029 11.8644 23.5294H7.7451C6.93294 23.5294 6.27451 24.1878 6.27451 25C6.27451 25.8122 6.93294 26.4706 7.7451 26.4706H11.8644C12.5193 31.297 16.3501 35.1277 21.1765 35.7826V39.902C21.1765 40.7141 21.8349 41.3726 22.6471 41.3726C23.4592 41.3726 24.1176 40.7141 24.1176 39.902V35.7826C28.944 35.1277 32.7748 31.2971 33.4297 26.4706H37.549C38.3612 26.4706 39.0196 25.8122 39.0196 25C39.0196 24.1878 38.3612 23.5294 37.549 23.5294ZM22.6471 32.9412C18.2682 32.9412 14.7059 29.3787 14.7059 25C14.7059 20.6213 18.2682 17.0588 22.6471 17.0588C27.0259 17.0588 30.5882 20.6213 30.5882 25C30.5882 29.3787 27.0259 32.9412 22.6471 32.9412Z" fill="url(#paint2_linear_14_1498)"/>
<defs>
<linearGradient id="paint0_linear_14_1498" x1="3.97727" y1="-3.80435" x2="55.035" y2="7.67203" gradientUnits="userSpaceOnUse">
<stop stop-color="#FECD20"/>
<stop offset="1" stop-color="#DB3443"/>
</linearGradient>
<linearGradient id="paint1_linear_14_1498" x1="3.97727" y1="-3.80435" x2="55.035" y2="7.67203" gradientUnits="userSpaceOnUse">
<stop stop-color="#FECD20"/>
<stop offset="1" stop-color="#DB3443"/>
</linearGradient>
<linearGradient id="paint2_linear_14_1498" x1="3.97727" y1="-3.80435" x2="55.035" y2="7.67203" gradientUnits="userSpaceOnUse">
<stop stop-color="#FECD20"/>
<stop offset="1" stop-color="#DB3443"/>
</linearGradient>
</defs>
</svg>
