<svg width="50" height="50" viewBox="0 0 50 50" fill="none" xmlns="http://www.w3.org/2000/svg">
<path d="M40.9805 33.5958C43.7908 28.977 44.8109 23.4884 43.8479 18.1682C42.8848 12.848 40.0055 8.06526 35.7544 4.72461C31.5033 1.38397 26.1753 -0.282903 20.7783 0.0393174C15.3813 0.361538 10.2895 2.6505 6.46613 6.47322C2.6463 10.2974 0.359848 15.3885 0.0390056 20.784C-0.281836 26.1796 1.38517 31.5058 4.72488 35.7557C8.0646 40.0056 12.8456 42.8847 18.164 43.8487C23.4825 44.8127 28.9698 43.7949 33.5887 40.9876L41.0702 48.4691C42.0505 49.4493 43.38 50 44.7662 50C46.1525 50 47.482 49.4493 48.4623 48.4691C49.4425 47.4888 49.9932 46.1593 49.9932 44.773C49.9932 43.3868 49.4425 42.0573 48.4623 41.077L40.9805 33.5958ZM9.36621 34.8298C7.69469 33.1583 6.36877 31.174 5.46415 28.9901C4.55953 26.8061 4.09393 24.4654 4.09393 22.1016C4.09393 19.7377 4.55953 17.397 5.46415 15.2131C6.36877 13.0291 7.69469 11.0448 9.36621 9.3733C12.742 5.99755 17.3204 4.10108 22.0945 4.10108C26.8685 4.10108 31.447 5.99755 34.8227 9.3733C38.1985 12.749 40.095 17.3275 40.095 22.1016C40.095 26.8756 38.1985 31.4541 34.8227 34.8298C27.8043 41.8482 16.3845 41.8482 9.36621 34.8298ZM45.562 45.569C45.349 45.7764 45.0634 45.8925 44.7661 45.8925C44.4688 45.8925 44.1833 45.7764 43.9703 45.569L36.907 38.5057C37.1843 38.2548 37.4562 37.9962 37.7227 37.7299C37.9892 37.4636 38.2479 37.1917 38.4986 36.914L45.562 43.9773C45.7708 44.1896 45.8878 44.4754 45.8878 44.7731C45.8878 45.0709 45.7708 45.3567 45.562 45.569ZM31.3761 15.7691C31.5666 15.9595 31.7176 16.1856 31.8207 16.4344C31.9238 16.6832 31.9768 16.9499 31.9768 17.2192C31.9768 17.4885 31.9238 17.7552 31.8207 18.004C31.7176 18.2528 31.5666 18.4789 31.3761 18.6693L21.6112 28.4342C21.4208 28.6246 21.1947 28.7757 20.9459 28.8788C20.6971 28.9818 20.4304 29.0349 20.1611 29.0349C19.8918 29.0349 19.6251 28.9818 19.3763 28.8788C19.1275 28.7757 18.9015 28.6246 18.711 28.4342L12.8123 22.5354C12.4278 22.1508 12.2117 21.6292 12.2117 21.0853C12.2117 20.5414 12.4278 20.0198 12.8123 19.6352C13.1969 19.2507 13.7185 19.0346 14.2624 19.0346C14.8063 19.0346 15.3279 19.2507 15.7125 19.6352L20.1612 24.084L28.4759 15.7693C28.6663 15.5789 28.8924 15.4278 29.1412 15.3247C29.39 15.2216 29.6567 15.1685 29.926 15.1685C30.1953 15.1685 30.462 15.2215 30.7108 15.3246C30.9596 15.4276 31.1857 15.5787 31.3761 15.7691Z" fill="url(#paint0_linear_14_1501)"/>
<defs>
<linearGradient id="paint0_linear_14_1501" x1="3.97673" y1="-3.80435" x2="55.0282" y2="7.66906" gradientUnits="userSpaceOnUse">
<stop stop-color="#FECD20"/>
<stop offset="1" stop-color="#DB3443"/>
</linearGradient>
</defs>
</svg>
