<svg width="50" height="50" viewBox="0 0 50 50" fill="none" xmlns="http://www.w3.org/2000/svg">
<path d="M31.5381 0C23.0009 0 15.8192 5.83262 13.717 13.717C5.83303 15.8191 0 23.0003 0 31.5381C0 41.7188 8.28207 50 18.4619 50C26.9997 50 34.181 44.1675 36.2831 36.2831C44.1675 34.181 50 26.9997 50 18.4619C50 8.28125 41.7188 0 31.5381 0ZM16.5448 16.5447C17.1742 16.4645 17.8111 16.4095 18.4619 16.4095C19.0893 16.4095 19.704 16.4598 20.3115 16.5344L16.5345 20.3118C16.46 19.7042 16.4095 19.0893 16.4095 18.4619C16.4095 17.8111 16.4646 17.1742 16.5448 16.5447ZM19.738 27.9052C18.812 26.7504 18.0554 25.4579 17.4969 24.0631L24.0625 17.4968C25.4573 18.0553 26.7502 18.812 27.9051 19.7381L19.738 27.9052ZM30.2618 22.0949C31.1879 23.2498 31.9448 24.5425 32.5032 25.9375L25.9374 32.5033C24.5423 31.9449 23.2496 31.1882 22.0947 30.262L30.2618 22.0949ZM18.4619 46.6667C10.1196 46.6667 3.33333 39.8795 3.33333 31.5381C3.33333 25.0751 7.41495 19.5609 13.1301 17.3981C13.1097 17.7522 13.0762 18.1028 13.0762 18.4619C13.0762 28.6426 21.3582 36.9238 31.5381 36.9238C31.8971 36.9238 32.2477 36.8903 32.6017 36.8699C30.4387 42.5847 24.9248 46.6667 18.4619 46.6667ZM33.4552 33.4552C32.8258 33.5354 32.1889 33.5905 31.5381 33.5905C30.9108 33.5905 30.2962 33.5401 29.6887 33.4656L33.4656 29.6887C33.5401 30.2962 33.5905 30.9109 33.5905 31.5381C33.5905 32.1889 33.5354 32.8258 33.4552 33.4552ZM36.8699 32.6017C36.8903 32.2477 36.9238 31.8971 36.9238 31.5381C36.9238 21.3574 28.6426 13.0762 18.4619 13.0762C18.1028 13.0762 17.7523 13.1097 17.3982 13.1301C19.5608 7.41527 25.0746 3.33333 31.5381 3.33333C39.8795 3.33333 46.6667 10.1205 46.6667 18.4619C46.6667 24.9248 42.5847 30.4387 36.8699 32.6017Z" fill="url(#paint0_linear_14_1508)"/>
<defs>
<linearGradient id="paint0_linear_14_1508" x1="3.97727" y1="-3.80435" x2="55.035" y2="7.67203" gradientUnits="userSpaceOnUse">
<stop stop-color="#FECD20"/>
<stop offset="1" stop-color="#DB3443"/>
</linearGradient>
</defs>
</svg>
