<svg xmlns="http://www.w3.org/2000/svg" xmlns:xlink="http://www.w3.org/1999/xlink" width="142.424" height="41.495" viewBox="0 0 142.424 41.495">
  <defs>
    <clipPath id="clip-path">
      <path id="Path_23" data-name="Path 23" d="M61.968,69.521h0l.011,0-.01,0,.01,0Zm0,0h0Z" transform="translate(-61.967 -69.521)" fill="none"/>
    </clipPath>
    <linearGradient id="linear-gradient" x1="-8373.515" y1="3595.605" x2="-8238.389" y2="3595.605" gradientUnits="objectBoundingBox">
      <stop offset="0" stop-color="#fecd20"/>
      <stop offset="0.246" stop-color="#feb422"/>
      <stop offset="0.503" stop-color="#ff9625"/>
      <stop offset="0.784" stop-color="#e75738"/>
      <stop offset="0.933" stop-color="#db3443"/>
      <stop offset="1" stop-color="#db3443"/>
    </linearGradient>
    <clipPath id="clip-path-2">
      <path id="Path_25" data-name="Path 25" d="M43.254,69.525l.006,0Zm.007,0-.007,0,.011,0Z" transform="translate(-43.254 -69.521)" fill="none"/>
    </clipPath>
    <linearGradient id="linear-gradient-2" x1="-5850.938" y1="3595.604" x2="-5715.673" y2="3595.604" xlink:href="#linear-gradient"/>
    <clipPath id="clip-path-3">
      <rect y="104" width="142.424" height="41.495" fill="none"/>
    </clipPath>
    <clipPath id="clip-path-4">
      <rect id="Rectangle_14" data-name="Rectangle 14" width="142.424" height="145.931" fill="none"/>
    </clipPath>
  </defs>
  <g id="Group_23" data-name="Group 23" transform="translate(47.737 -60)">
    <g id="Group_12" data-name="Group 12" transform="translate(89.039 69.422)">
      <g id="Group_11" data-name="Group 11" clip-path="url(#clip-path)">
        <rect id="Rectangle_5" data-name="Rectangle 5" width="0.008" height="0.012" transform="translate(-0.002 0.004) rotate(-68.418)" fill="url(#linear-gradient)"/>
      </g>
    </g>
    <g id="Group_16" data-name="Group 16" transform="translate(64.889 69.422)">
      <g id="Group_15" data-name="Group 15" clip-path="url(#clip-path-2)">
        <rect id="Rectangle_7" data-name="Rectangle 7" width="0.008" height="0.012" transform="translate(-0.002 0.004) rotate(-68.413)" fill="url(#linear-gradient-2)"/>
      </g>
    </g>
    <g id="Scroll_Group_1" data-name="Scroll Group 1" transform="translate(-47.737 -44)" clip-path="url(#clip-path-3)" style="isolation: isolate">
      <g id="Group_22" data-name="Group 22">
        <g id="Group_21" data-name="Group 21" clip-path="url(#clip-path-4)">
          <path id="Path_28" data-name="Path 28" d="M15.156,79.462a12.69,12.69,0,0,0-5.27-1.011H0V101.29H5.287v-6.3h4.6A12.87,12.87,0,0,0,15.156,94,7.682,7.682,0,0,0,18.6,91.127a8.617,8.617,0,0,0,0-8.795,7.826,7.826,0,0,0-3.443-2.87m-1.941,10.2a5.546,5.546,0,0,1-3.622,1.029H5.287V82.757H9.593a5.547,5.547,0,0,1,3.622,1.029,3.618,3.618,0,0,1,1.24,2.951,3.58,3.58,0,0,1-1.24,2.921" transform="translate(0 27.306)" fill="#fff"/>
          <path id="Path_29" data-name="Path 29" d="M35.074,101.29H40.36V78.45H35.074v9.006H24.7V78.45H19.412v22.84H24.7V91.927H35.074Z" transform="translate(6.757 27.306)" fill="#fff"/>
          <path id="Path_30" data-name="Path 30" d="M58.59,94.673H46.158V89.387H56.764V85.276H40.9v13.64H58.59Z" transform="translate(14.238 29.681)" fill="#fff"/>
          <rect id="Rectangle_10" data-name="Rectangle 10" width="17.261" height="4.242" transform="translate(55.143 105.756)" fill="#fff"/>
          <path id="Path_31" data-name="Path 31" d="M74.81,92.317,63.455,78.45H59.082v22.84H64.3V87.424L75.691,101.29h4.339V78.45H74.81Z" transform="translate(20.564 27.305)" fill="#fff"/>
          <rect id="Rectangle_11" data-name="Rectangle 11" width="5.287" height="22.84" transform="translate(108.62 105.756)" fill="#fff"/>
          <path id="Path_32" data-name="Path 32" d="M111.616,101.29,103.1,89.479l7.962-11.029h-5.71L100.2,85.858,94.943,78.45h-6l8.026,11.224L88.514,101.29h6.069L100,93.362l5.515,7.928Z" transform="translate(30.809 27.306)" fill="#fff"/>
          <path id="Path_33" data-name="Path 33" d="M0,110.85H2.448V107h4.9v-1.965h-4.9v-2.8H8V100.27H0Z" transform="translate(0 34.9)" fill="#fff"/>
          <rect id="Rectangle_12" data-name="Rectangle 12" width="2.448" height="10.58" transform="translate(21.748 135.17)" fill="#fff"/>
          <path id="Path_34" data-name="Path 34" d="M36.062,106.694,30.8,100.27H28.779v10.58H31.2v-6.422l5.275,6.422h2.01V100.27H36.062Z" transform="translate(10.017 34.9)" fill="#fff"/>
          <path id="Path_35" data-name="Path 35" d="M50.49,100.27l-4.716,10.58h2.509l3.4-8.177,3.385,8.177h2.569l-4.729-10.58Z" transform="translate(15.932 34.9)" fill="#fff"/>
          <path id="Path_36" data-name="Path 36" d="M71.645,106.694l-5.259-6.424H64.362v10.58H66.78v-6.422l5.274,6.422h2.011V100.27h-2.42Z" transform="translate(22.402 34.9)" fill="#fff"/>
          <path id="Path_37" data-name="Path 37" d="M86.005,102.652a3.534,3.534,0,0,1,1.754-.431,3.38,3.38,0,0,1,2.66,1.24l1.572-1.452a4.98,4.98,0,0,0-1.867-1.39,6.553,6.553,0,0,0-5.426.22,5.238,5.238,0,0,0-2.054,1.949,5.684,5.684,0,0,0,0,5.638,5.257,5.257,0,0,0,2.054,1.949,6.089,6.089,0,0,0,2.925.7,6.235,6.235,0,0,0,2.494-.484,4.9,4.9,0,0,0,1.874-1.406l-1.572-1.449a3.364,3.364,0,0,1-2.66,1.254,3.548,3.548,0,0,1-1.754-.43,3.084,3.084,0,0,1-1.2-1.2,3.778,3.778,0,0,1,0-3.506,3.072,3.072,0,0,1,1.2-1.2" transform="translate(28.505 34.853)" fill="#fff"/>
          <rect id="Rectangle_13" data-name="Rectangle 13" width="7.995" height="1.964" transform="translate(134.233 135.172)" fill="#fff"/>
          <path id="Path_38" data-name="Path 38" d="M102.009,105.336h4.911v-1.9H99.574v6.316h8.192v-1.963h-5.758Z" transform="translate(34.658 36.001)" fill="#fff"/>
        </g>
      </g>
    </g>
  </g>
</svg>
